<svg width="80" height="80" viewBox="78 0 130 106" fill="none" xmlns="http://www.w3.org/2000/svg">
    <path
        d="M115.471 84.912C113.72 84.912 112.144 84.5514 110.743 83.8306C109.342 83.1097 108.312 82.1518 107.653 80.957L110.496 78.7011C111.711 80.5759 113.41 81.5129 115.594 81.5129C116.645 81.5129 117.5 81.2612 118.159 80.756C118.818 80.2514 119.148 79.5975 119.148 78.7939C119.148 77.3313 118.107 76.2192 116.027 75.4567L113.617 74.5914C111.845 73.953 110.537 73.1344 109.692 72.1349C108.847 71.1359 108.425 69.8948 108.425 68.4114C108.425 66.5371 109.095 65.0384 110.434 63.9153C111.773 62.7927 113.483 62.2313 115.564 62.2313C118.345 62.2313 120.559 63.2305 122.207 65.2285L119.704 67.6699C118.571 66.3102 117.18 65.6302 115.532 65.6302C114.564 65.6302 113.745 65.8573 113.076 66.3102C112.406 66.7635 112.072 67.3816 112.072 68.1641C112.072 68.9264 112.324 69.5289 112.829 69.9718C113.333 70.4151 114.193 70.8631 115.409 71.316L117.634 72.1502C119.323 72.7891 120.61 73.6233 121.496 74.6531C122.382 75.6837 122.815 76.9915 122.794 78.5775C122.794 80.4731 122.114 82.0026 120.755 83.1663C119.395 84.3303 117.634 84.912 115.471 84.912Z"
        fill="#0395FF" />
    <path
        d="M129.623 84.5416H126.224V61.3662H129.623V71.1926C130.591 69.5858 132.157 68.7825 134.32 68.7825C136.112 68.7825 137.544 69.3694 138.615 70.5437C139.686 71.7179 140.222 73.2835 140.222 75.2406V84.5416H136.823V75.7967C136.823 74.5608 136.534 73.598 135.958 72.9074C135.381 72.2176 134.598 71.8724 133.609 71.8724C132.435 71.8724 131.477 72.3157 130.736 73.201C129.994 74.0872 129.623 75.3334 129.623 76.9401V84.5416Z"
        fill="#0395FF" />
    <path
        d="M151.562 81.699C152.901 81.699 154.008 81.2306 154.884 80.2931C155.759 79.356 156.197 78.1971 156.197 76.8168C156.197 75.4369 155.759 74.278 154.884 73.3405C154.008 72.4032 152.901 71.9345 151.562 71.9345C150.202 71.9345 149.085 72.4032 148.209 73.3405C147.334 74.278 146.896 75.4369 146.896 76.8168C146.896 78.1971 147.334 79.356 148.209 80.2931C149.085 81.2306 150.202 81.699 151.562 81.699ZM157.325 82.5179C155.769 84.0735 153.849 84.8508 151.562 84.8508C149.275 84.8508 147.354 84.0735 145.799 82.5179C144.244 80.9628 143.466 79.0624 143.466 76.8168C143.466 74.5716 144.244 72.6715 145.799 71.1156C147.354 69.5605 149.275 68.7827 151.562 68.7827C153.849 68.7827 155.769 69.5605 157.325 71.1156C158.88 72.6715 159.658 74.5716 159.658 76.8168C159.658 79.0624 158.88 80.9628 157.325 82.5179Z"
        fill="#0395FF" />
    <path
        d="M170.843 81.7607C172.182 81.7607 173.284 81.287 174.149 80.3392C175.015 79.3921 175.447 78.2179 175.447 76.8168C175.447 75.4161 175.015 74.2419 174.149 73.2943C173.284 72.3468 172.182 71.8729 170.843 71.8729C169.483 71.8729 168.371 72.3468 167.505 73.2943C166.641 74.2419 166.208 75.4161 166.208 76.8168C166.208 78.2179 166.641 79.3921 167.505 80.3392C168.371 81.287 169.483 81.7607 170.843 81.7607ZM166.486 91H163.087V69.0916H166.486V71.162C166.959 70.5028 167.645 69.9414 168.541 69.478C169.437 69.0144 170.41 68.7827 171.461 68.7827C173.562 68.7827 175.328 69.5658 176.76 71.1312C178.192 72.6968 178.908 74.5919 178.908 76.8168C178.908 79.0414 178.192 80.9372 176.76 82.5024C175.328 84.0685 173.562 84.8508 171.461 84.8508C170.41 84.8508 169.437 84.6191 168.541 84.1555C167.645 83.6921 166.959 83.131 166.486 82.4715V91Z"
        fill="#0395FF" />
    <path
        d="M203.148 19.7179C203.148 22.3238 201.036 24.4357 198.43 24.4357C195.825 24.4357 193.712 22.3238 193.712 19.7179C193.712 17.1122 195.825 15 198.43 15C201.036 15 203.148 17.1122 203.148 19.7179Z"
        fill="#0395FF" />
    <path d="M175.256 15.7747L189.145 43.4941L183.51 54.5705L164.021 15.7749L175.256 15.7747Z"
        fill="black" />
    <path
        d="M152.698 39.2919C151.172 42.4079 147.971 44.5541 144.268 44.5541C139.087 44.5541 134.886 40.3538 134.886 35.1722C134.886 29.9911 139.087 25.7908 144.268 25.7908C148.011 25.7908 151.242 27.9838 152.747 31.155L161.698 26.6533C158.544 20.211 151.924 15.7744 144.268 15.7744C133.555 15.7744 124.87 24.4591 124.87 35.1722C124.87 45.8854 133.555 54.5703 144.268 54.5703C151.871 54.5703 158.451 50.1952 161.632 43.8262L152.698 39.2919Z"
        fill="black" />
    <path
        d="M111.425 39.2919C109.899 42.4079 106.699 44.5541 102.996 44.5541C97.8141 44.5541 93.6138 40.3538 93.6138 35.1722C93.6138 29.9911 97.8141 25.7908 102.996 25.7908C106.739 25.7908 109.969 27.9838 111.475 31.155L120.426 26.6533C117.272 20.211 110.652 15.7744 102.996 15.7744C92.2823 15.7744 83.5975 24.4591 83.5975 35.1722C83.5975 45.8854 92.2823 54.5703 102.996 54.5703C110.599 54.5703 117.179 50.1952 120.359 43.8262L111.425 39.2919Z"
        fill="black" />
</svg>