<svg version="1.2" xmlns="http://www.w3.org/2000/svg" viewBox="0 0 1041 1554" width="1041" height="1554">
	<title>lightspeed-svg</title>
	<style>
		.s0 { fill: #e81c1c } 
	</style>
	<path id="Layer" class="s0" d="m520.5 0.3l71.5 124.5c14.3 25.8 14.3 57.3 0 83.1l-426.2 740.2 201.7 349.3c31.4 54.4 90.1 88.8 153 88.8 63 0 121.6-34.4 153.1-88.8l201.7-349.3-53-94.5-228.8 396.6c-14.3 25.8-42.9 41.5-71.5 41.5-30.1 0-57.3-15.7-71.6-41.5l-175.9-302.1 396.2-687.3 71.5 124.6c14.3 25.8 14.3 57.3 0 83l-276 479.7 54.3 94.5 300.4-521.2 197.4 342.2c30.1 53 30.1 117.4 0 170.4l-200.2 347.9c-30.1 53-125.9 171.8-297.6 171.8-171.6 0-266-118.8-297.5-171.8l-200.3-347.9c-30-53-30-117.4 0-170.4z"/>
	<g id="Layer">
	</g>
</svg>